<mxfile host="app.diagrams.net" agent="Mozilla/5.0 (Windows NT 10.0; Win64; x64) AppleWebKit/537.36 (KHTML, like Gecko) Chrome/133.0.0.0 Safari/537.36 Edg/133.0.0.0" version="26.0.14">
  <diagram name="Page-1" id="p_CH6QeepOM8WfI_RDpC">
    <mxGraphModel dx="1866" dy="525" grid="0" gridSize="10" guides="0" tooltips="1" connect="1" arrows="1" fold="1" page="0" pageScale="1" pageWidth="850" pageHeight="1100" math="0" shadow="0">
      <root>
        <mxCell id="0" />
        <mxCell id="1" parent="0" />
        <mxCell id="Jm47MydlCzY3dooI6Hed-61" value="" style="group" parent="1" vertex="1" connectable="0">
          <mxGeometry x="978" y="524" width="491" height="440" as="geometry" />
        </mxCell>
        <mxCell id="Jm47MydlCzY3dooI6Hed-62" value="" style="rounded=0;whiteSpace=wrap;html=1;gradientColor=default;fillColor=none;" parent="Jm47MydlCzY3dooI6Hed-61" vertex="1">
          <mxGeometry x="-0.5831353919239904" width="491.583135391924" height="440.00000000000006" as="geometry" />
        </mxCell>
        <mxCell id="Jm47MydlCzY3dooI6Hed-63" value="GraphDB (neo4j)" style="text;html=1;align=center;verticalAlign=middle;whiteSpace=wrap;rounded=0;fontSize=16;fontStyle=1" parent="Jm47MydlCzY3dooI6Hed-61" vertex="1">
          <mxGeometry x="2.63" y="1" width="146.37" height="29.96" as="geometry" />
        </mxCell>
        <mxCell id="Jm47MydlCzY3dooI6Hed-67" value="User 1" style="ellipse;whiteSpace=wrap;html=1;aspect=fixed;fillColor=#d5e8d4;strokeColor=#82b366;" parent="Jm47MydlCzY3dooI6Hed-61" vertex="1">
          <mxGeometry x="31.997209302325583" y="170.99743757377647" width="54.50059021156815" height="54.50059021156815" as="geometry" />
        </mxCell>
        <mxCell id="Jm47MydlCzY3dooI6Hed-69" value="Event 2" style="ellipse;whiteSpace=wrap;html=1;aspect=fixed;fillColor=#fff2cc;strokeColor=#d6b656;" parent="Jm47MydlCzY3dooI6Hed-61" vertex="1">
          <mxGeometry x="219" y="192" width="48" height="48" as="geometry" />
        </mxCell>
        <mxCell id="Jm47MydlCzY3dooI6Hed-95" value="Interest 3" style="ellipse;whiteSpace=wrap;html=1;aspect=fixed;fillColor=#ffe6cc;strokeColor=#d79b00;" parent="Jm47MydlCzY3dooI6Hed-61" vertex="1">
          <mxGeometry x="193.00433403805496" y="329.99642967402167" width="60.8622954689912" height="60.8622954689912" as="geometry" />
        </mxCell>
        <mxCell id="Jm47MydlCzY3dooI6Hed-96" value="Interest 2" style="ellipse;whiteSpace=wrap;html=1;aspect=fixed;fillColor=#ffe6cc;strokeColor=#d79b00;" parent="Jm47MydlCzY3dooI6Hed-61" vertex="1">
          <mxGeometry x="85.9993868921776" y="328.9995487151549" width="60.8622954689912" height="60.8622954689912" as="geometry" />
        </mxCell>
        <mxCell id="Jm47MydlCzY3dooI6Hed-97" value="User 2" style="ellipse;whiteSpace=wrap;html=1;aspect=fixed;fillColor=#d5e8d4;strokeColor=#82b366;" parent="Jm47MydlCzY3dooI6Hed-61" vertex="1">
          <mxGeometry x="103.00099365750526" y="53.99986561336603" width="54.50059021156815" height="54.50059021156815" as="geometry" />
        </mxCell>
        <mxCell id="Jm47MydlCzY3dooI6Hed-98" value="Interest 1" style="ellipse;whiteSpace=wrap;html=1;aspect=fixed;fillColor=#ffe6cc;strokeColor=#d79b00;" parent="Jm47MydlCzY3dooI6Hed-61" vertex="1">
          <mxGeometry x="7.999154334038053" y="309.9983010987015" width="60.8622954689912" height="60.8622954689912" as="geometry" />
        </mxCell>
        <mxCell id="Jm47MydlCzY3dooI6Hed-100" value="Interest 4" style="ellipse;whiteSpace=wrap;html=1;aspect=fixed;fillColor=#ffe6cc;strokeColor=#d79b00;" parent="Jm47MydlCzY3dooI6Hed-61" vertex="1">
          <mxGeometry x="284.99928118393234" y="369.9999037501135" width="60.8622954689912" height="60.8622954689912" as="geometry" />
        </mxCell>
        <mxCell id="Jm47MydlCzY3dooI6Hed-101" value="Interest 5" style="ellipse;whiteSpace=wrap;html=1;aspect=fixed;fillColor=#ffe6cc;strokeColor=#d79b00;" parent="Jm47MydlCzY3dooI6Hed-61" vertex="1">
          <mxGeometry x="370.0022832980972" y="325.00184236811043" width="60.8622954689912" height="60.8622954689912" as="geometry" />
        </mxCell>
        <mxCell id="Jm47MydlCzY3dooI6Hed-108" value="" style="endArrow=none;html=1;rounded=0;entryX=1;entryY=0;entryDx=0;entryDy=0;exitX=0;exitY=1;exitDx=0;exitDy=0;" parent="Jm47MydlCzY3dooI6Hed-61" source="Jm47MydlCzY3dooI6Hed-97" target="Jm47MydlCzY3dooI6Hed-67" edge="1">
          <mxGeometry width="50" height="50" relative="1" as="geometry">
            <mxPoint x="102" y="378" as="sourcePoint" />
            <mxPoint x="78" y="346" as="targetPoint" />
          </mxGeometry>
        </mxCell>
        <mxCell id="Jm47MydlCzY3dooI6Hed-109" value="User 3" style="ellipse;whiteSpace=wrap;html=1;aspect=fixed;fillColor=#d5e8d4;strokeColor=#82b366;" parent="Jm47MydlCzY3dooI6Hed-61" vertex="1">
          <mxGeometry x="381.0009936575052" y="30.999865613365955" width="54.50059021156815" height="54.50059021156815" as="geometry" />
        </mxCell>
        <mxCell id="Jm47MydlCzY3dooI6Hed-110" value="Event 1" style="ellipse;whiteSpace=wrap;html=1;aspect=fixed;fillColor=#fff2cc;strokeColor=#d6b656;" parent="Jm47MydlCzY3dooI6Hed-61" vertex="1">
          <mxGeometry x="141" y="184" width="48" height="48" as="geometry" />
        </mxCell>
        <mxCell id="Jm47MydlCzY3dooI6Hed-112" value="" style="endArrow=none;html=1;rounded=0;entryX=1;entryY=0;entryDx=0;entryDy=0;exitX=0;exitY=1;exitDx=0;exitDy=0;dashed=1;dashPattern=1 1;" parent="Jm47MydlCzY3dooI6Hed-61" source="Jm47MydlCzY3dooI6Hed-110" target="Jm47MydlCzY3dooI6Hed-96" edge="1">
          <mxGeometry width="50" height="50" relative="1" as="geometry">
            <mxPoint x="273" y="232" as="sourcePoint" />
            <mxPoint x="191" y="269" as="targetPoint" />
          </mxGeometry>
        </mxCell>
        <mxCell id="Jm47MydlCzY3dooI6Hed-113" value="" style="endArrow=none;html=1;rounded=0;entryX=0;entryY=0;entryDx=0;entryDy=0;exitX=1;exitY=1;exitDx=0;exitDy=0;dashed=1;dashPattern=1 1;" parent="Jm47MydlCzY3dooI6Hed-61" source="Jm47MydlCzY3dooI6Hed-69" target="Jm47MydlCzY3dooI6Hed-101" edge="1">
          <mxGeometry width="50" height="50" relative="1" as="geometry">
            <mxPoint x="319" y="260" as="sourcePoint" />
            <mxPoint x="290" y="302" as="targetPoint" />
          </mxGeometry>
        </mxCell>
        <mxCell id="Jm47MydlCzY3dooI6Hed-114" value="" style="endArrow=none;html=1;rounded=0;entryX=0.5;entryY=0;entryDx=0;entryDy=0;exitX=0;exitY=1;exitDx=0;exitDy=0;dashed=1;dashPattern=1 1;" parent="Jm47MydlCzY3dooI6Hed-61" source="Jm47MydlCzY3dooI6Hed-69" target="Jm47MydlCzY3dooI6Hed-95" edge="1">
          <mxGeometry width="50" height="50" relative="1" as="geometry">
            <mxPoint x="214" y="259" as="sourcePoint" />
            <mxPoint x="267" y="301" as="targetPoint" />
          </mxGeometry>
        </mxCell>
        <mxCell id="Jm47MydlCzY3dooI6Hed-115" value="" style="endArrow=none;html=1;rounded=0;entryX=0;entryY=0.5;entryDx=0;entryDy=0;exitX=1;exitY=1;exitDx=0;exitDy=0;dashed=1;dashPattern=1 1;" parent="Jm47MydlCzY3dooI6Hed-61" source="Jm47MydlCzY3dooI6Hed-110" target="Jm47MydlCzY3dooI6Hed-101" edge="1">
          <mxGeometry width="50" height="50" relative="1" as="geometry">
            <mxPoint x="213" y="252" as="sourcePoint" />
            <mxPoint x="184" y="294" as="targetPoint" />
          </mxGeometry>
        </mxCell>
        <mxCell id="Jm47MydlCzY3dooI6Hed-116" value="" style="endArrow=none;html=1;rounded=0;entryX=0.5;entryY=0;entryDx=0;entryDy=0;exitX=0.5;exitY=1;exitDx=0;exitDy=0;dashed=1;" parent="Jm47MydlCzY3dooI6Hed-61" source="Jm47MydlCzY3dooI6Hed-67" target="Jm47MydlCzY3dooI6Hed-98" edge="1">
          <mxGeometry width="50" height="50" relative="1" as="geometry">
            <mxPoint x="43" y="211" as="sourcePoint" />
            <mxPoint x="14" y="253" as="targetPoint" />
          </mxGeometry>
        </mxCell>
        <mxCell id="Jm47MydlCzY3dooI6Hed-117" value="" style="endArrow=none;html=1;rounded=0;entryX=0;entryY=0.5;entryDx=0;entryDy=0;exitX=1;exitY=1;exitDx=0;exitDy=0;dashed=1;" parent="Jm47MydlCzY3dooI6Hed-61" source="Jm47MydlCzY3dooI6Hed-67" target="Jm47MydlCzY3dooI6Hed-101" edge="1">
          <mxGeometry width="50" height="50" relative="1" as="geometry">
            <mxPoint x="69" y="235" as="sourcePoint" />
            <mxPoint x="62" y="291" as="targetPoint" />
          </mxGeometry>
        </mxCell>
        <mxCell id="Jm47MydlCzY3dooI6Hed-118" value="" style="endArrow=none;html=1;rounded=0;entryX=1;entryY=0;entryDx=0;entryDy=0;exitX=0;exitY=1;exitDx=0;exitDy=0;" parent="Jm47MydlCzY3dooI6Hed-61" source="Jm47MydlCzY3dooI6Hed-109" target="Jm47MydlCzY3dooI6Hed-67" edge="1">
          <mxGeometry width="50" height="50" relative="1" as="geometry">
            <mxPoint x="154" y="106" as="sourcePoint" />
            <mxPoint x="89" y="189" as="targetPoint" />
          </mxGeometry>
        </mxCell>
        <mxCell id="Jm47MydlCzY3dooI6Hed-119" value="" style="endArrow=none;html=1;rounded=0;entryX=0.5;entryY=0;entryDx=0;entryDy=0;exitX=0.5;exitY=1;exitDx=0;exitDy=0;dashed=1;" parent="Jm47MydlCzY3dooI6Hed-61" source="Jm47MydlCzY3dooI6Hed-97" target="Jm47MydlCzY3dooI6Hed-96" edge="1">
          <mxGeometry width="50" height="50" relative="1" as="geometry">
            <mxPoint x="289" y="111" as="sourcePoint" />
            <mxPoint x="89" y="189" as="targetPoint" />
          </mxGeometry>
        </mxCell>
        <mxCell id="Jm47MydlCzY3dooI6Hed-120" value="" style="endArrow=none;html=1;rounded=0;entryX=0;entryY=0;entryDx=0;entryDy=0;exitX=0.992;exitY=0.609;exitDx=0;exitDy=0;dashed=1;exitPerimeter=0;dashPattern=8 8;" parent="Jm47MydlCzY3dooI6Hed-61" source="Jm47MydlCzY3dooI6Hed-97" target="Jm47MydlCzY3dooI6Hed-69" edge="1">
          <mxGeometry width="50" height="50" relative="1" as="geometry">
            <mxPoint x="173" y="114" as="sourcePoint" />
            <mxPoint x="142" y="273" as="targetPoint" />
          </mxGeometry>
        </mxCell>
        <mxCell id="Jm47MydlCzY3dooI6Hed-121" value="" style="endArrow=none;html=1;rounded=0;exitX=0.5;exitY=1;exitDx=0;exitDy=0;dashed=1;entryX=0.5;entryY=0;entryDx=0;entryDy=0;" parent="Jm47MydlCzY3dooI6Hed-61" source="Jm47MydlCzY3dooI6Hed-109" target="Jm47MydlCzY3dooI6Hed-101" edge="1">
          <mxGeometry width="50" height="50" relative="1" as="geometry">
            <mxPoint x="193" y="106" as="sourcePoint" />
            <mxPoint x="403" y="300" as="targetPoint" />
          </mxGeometry>
        </mxCell>
        <mxCell id="Jm47MydlCzY3dooI6Hed-122" value="" style="endArrow=none;html=1;rounded=0;entryX=0.753;entryY=0.05;entryDx=0;entryDy=0;exitX=0.325;exitY=0.969;exitDx=0;exitDy=0;exitPerimeter=0;dashed=1;dashPattern=8 8;entryPerimeter=0;" parent="Jm47MydlCzY3dooI6Hed-61" source="Jm47MydlCzY3dooI6Hed-109" target="Jm47MydlCzY3dooI6Hed-69" edge="1">
          <mxGeometry width="50" height="50" relative="1" as="geometry">
            <mxPoint x="337" y="120" as="sourcePoint" />
            <mxPoint x="89" y="189" as="targetPoint" />
          </mxGeometry>
        </mxCell>
        <mxCell id="Jm47MydlCzY3dooI6Hed-123" value="" style="endArrow=none;html=1;rounded=0;entryX=0;entryY=0;entryDx=0;entryDy=0;exitX=1;exitY=1;exitDx=0;exitDy=0;" parent="Jm47MydlCzY3dooI6Hed-61" source="Jm47MydlCzY3dooI6Hed-97" target="Jm47MydlCzY3dooI6Hed-69" edge="1">
          <mxGeometry width="50" height="50" relative="1" as="geometry">
            <mxPoint x="251" y="102" as="sourcePoint" />
            <mxPoint x="236" y="190" as="targetPoint" />
          </mxGeometry>
        </mxCell>
        <mxCell id="Jm47MydlCzY3dooI6Hed-125" value="" style="endArrow=none;html=1;rounded=0;entryX=0;entryY=0.5;entryDx=0;entryDy=0;exitX=0.973;exitY=0.697;exitDx=0;exitDy=0;dashed=1;exitPerimeter=0;dashPattern=8 8;" parent="Jm47MydlCzY3dooI6Hed-61" source="Jm47MydlCzY3dooI6Hed-67" target="Jm47MydlCzY3dooI6Hed-110" edge="1">
          <mxGeometry width="50" height="50" relative="1" as="geometry">
            <mxPoint x="94" y="199" as="sourcePoint" />
            <mxPoint x="209" y="328" as="targetPoint" />
          </mxGeometry>
        </mxCell>
        <mxCell id="Jm47MydlCzY3dooI6Hed-128" value="is friends with" style="text;html=1;align=center;verticalAlign=middle;whiteSpace=wrap;rounded=0;fontSize=10;" parent="Jm47MydlCzY3dooI6Hed-61" vertex="1">
          <mxGeometry x="22" y="111" width="87" height="30" as="geometry" />
        </mxCell>
        <mxCell id="Jm47MydlCzY3dooI6Hed-129" value="is interested in&lt;div&gt;0.67&lt;/div&gt;" style="text;html=1;align=center;verticalAlign=middle;whiteSpace=wrap;rounded=0;fontSize=10;" parent="Jm47MydlCzY3dooI6Hed-61" vertex="1">
          <mxGeometry x="398" y="191" width="87" height="30" as="geometry" />
        </mxCell>
        <mxCell id="Jm47MydlCzY3dooI6Hed-130" value="is of type" style="text;html=1;align=center;verticalAlign=middle;whiteSpace=wrap;rounded=0;fontSize=10;" parent="Jm47MydlCzY3dooI6Hed-61" vertex="1">
          <mxGeometry x="167" y="283" width="69" height="30" as="geometry" />
        </mxCell>
        <mxCell id="Jm47MydlCzY3dooI6Hed-135" value="Type 1" style="ellipse;whiteSpace=wrap;html=1;aspect=fixed;fillColor=#dae8fc;strokeColor=#6c8ebf;" parent="Jm47MydlCzY3dooI6Hed-61" vertex="1">
          <mxGeometry x="236" y="15" width="48" height="48" as="geometry" />
        </mxCell>
        <mxCell id="Jm47MydlCzY3dooI6Hed-137" value="" style="endArrow=none;html=1;rounded=0;exitX=0.5;exitY=1;exitDx=0;exitDy=0;dashed=1;entryX=0.5;entryY=0;entryDx=0;entryDy=0;dashPattern=12 12;" parent="Jm47MydlCzY3dooI6Hed-61" source="Jm47MydlCzY3dooI6Hed-135" target="Jm47MydlCzY3dooI6Hed-69" edge="1">
          <mxGeometry width="50" height="50" relative="1" as="geometry">
            <mxPoint x="356" y="128" as="sourcePoint" />
            <mxPoint x="412" y="288" as="targetPoint" />
          </mxGeometry>
        </mxCell>
        <mxCell id="Jm47MydlCzY3dooI6Hed-138" value="is of type" style="text;html=1;align=center;verticalAlign=middle;whiteSpace=wrap;rounded=0;fontSize=10;" parent="Jm47MydlCzY3dooI6Hed-61" vertex="1">
          <mxGeometry x="237" y="67" width="87" height="30" as="geometry" />
        </mxCell>
        <mxCell id="Jm47MydlCzY3dooI6Hed-140" value="Thread" style="ellipse;whiteSpace=wrap;html=1;aspect=fixed;fillColor=#e1d5e7;strokeColor=#9673a6;" parent="Jm47MydlCzY3dooI6Hed-61" vertex="1">
          <mxGeometry x="314" y="184" width="48" height="48" as="geometry" />
        </mxCell>
        <mxCell id="Jm47MydlCzY3dooI6Hed-141" value="" style="endArrow=none;html=1;rounded=0;entryX=0.212;entryY=0.067;entryDx=0;entryDy=0;exitX=0.5;exitY=1;exitDx=0;exitDy=0;dashed=1;dashPattern=1 4;entryPerimeter=0;" parent="Jm47MydlCzY3dooI6Hed-61" source="Jm47MydlCzY3dooI6Hed-140" target="Jm47MydlCzY3dooI6Hed-101" edge="1">
          <mxGeometry width="50" height="50" relative="1" as="geometry">
            <mxPoint x="380" y="89" as="sourcePoint" />
            <mxPoint x="265" y="204" as="targetPoint" />
          </mxGeometry>
        </mxCell>
        <mxCell id="Jm47MydlCzY3dooI6Hed-144" value="" style="endArrow=none;html=1;rounded=0;entryX=0.388;entryY=0.96;entryDx=0;entryDy=0;exitX=0.5;exitY=0;exitDx=0;exitDy=0;dashed=1;dashPattern=1 1;entryPerimeter=0;" parent="Jm47MydlCzY3dooI6Hed-61" source="Jm47MydlCzY3dooI6Hed-140" target="Jm47MydlCzY3dooI6Hed-109" edge="1">
          <mxGeometry width="50" height="50" relative="1" as="geometry">
            <mxPoint x="365" y="235" as="sourcePoint" />
            <mxPoint x="405" y="312" as="targetPoint" />
          </mxGeometry>
        </mxCell>
        <mxCell id="Jm47MydlCzY3dooI6Hed-145" value="" style="endArrow=none;html=1;rounded=0;entryX=1;entryY=0.5;entryDx=0;entryDy=0;exitX=0;exitY=0;exitDx=0;exitDy=0;dashed=1;dashPattern=1 1;" parent="Jm47MydlCzY3dooI6Hed-61" source="Jm47MydlCzY3dooI6Hed-140" target="Jm47MydlCzY3dooI6Hed-97" edge="1">
          <mxGeometry width="50" height="50" relative="1" as="geometry">
            <mxPoint x="348" y="194" as="sourcePoint" />
            <mxPoint x="383" y="88" as="targetPoint" />
          </mxGeometry>
        </mxCell>
        <mxCell id="Jm47MydlCzY3dooI6Hed-146" value="created by" style="text;html=1;align=center;verticalAlign=middle;whiteSpace=wrap;rounded=0;fontSize=10;" parent="Jm47MydlCzY3dooI6Hed-61" vertex="1">
          <mxGeometry x="347" y="156" width="50" height="30" as="geometry" />
        </mxCell>
        <mxCell id="Jm47MydlCzY3dooI6Hed-147" value="commented on" style="text;html=1;align=center;verticalAlign=middle;whiteSpace=wrap;rounded=0;fontSize=10;" parent="Jm47MydlCzY3dooI6Hed-61" vertex="1">
          <mxGeometry x="164" y="70" width="50" height="30" as="geometry" />
        </mxCell>
        <mxCell id="Jm47MydlCzY3dooI6Hed-194" value="is of topic" style="text;html=1;align=center;verticalAlign=middle;whiteSpace=wrap;rounded=0;fontSize=10;" parent="Jm47MydlCzY3dooI6Hed-61" vertex="1">
          <mxGeometry x="347" y="233" width="50" height="30" as="geometry" />
        </mxCell>
        <mxCell id="Jm47MydlCzY3dooI6Hed-143" value="" style="endArrow=none;html=1;rounded=0;exitX=0;exitY=1;exitDx=0;exitDy=0;dashed=1;dashPattern=1 4;" parent="Jm47MydlCzY3dooI6Hed-61" source="Jm47MydlCzY3dooI6Hed-140" edge="1">
          <mxGeometry width="50" height="50" relative="1" as="geometry">
            <mxPoint x="329" y="239" as="sourcePoint" />
            <mxPoint x="237" y="335" as="targetPoint" />
          </mxGeometry>
        </mxCell>
        <mxCell id="Jm47MydlCzY3dooI6Hed-196" value="is interested in&amp;nbsp;&lt;span style=&quot;background-color: transparent; color: light-dark(rgb(0, 0, 0), rgb(255, 255, 255));&quot;&gt;0.93&lt;/span&gt;" style="text;html=1;align=center;verticalAlign=middle;whiteSpace=wrap;rounded=0;fontSize=10;" parent="Jm47MydlCzY3dooI6Hed-61" vertex="1">
          <mxGeometry x="47" y="276" width="59" height="30" as="geometry" />
        </mxCell>
        <mxCell id="Jm47MydlCzY3dooI6Hed-198" value="is friends with" style="text;html=1;align=center;verticalAlign=middle;whiteSpace=wrap;rounded=0;fontSize=10;" parent="Jm47MydlCzY3dooI6Hed-61" vertex="1">
          <mxGeometry x="307" y="57" width="87" height="30" as="geometry" />
        </mxCell>
        <mxCell id="Jm47MydlCzY3dooI6Hed-36" value="Frontend" style="text;html=1;align=center;verticalAlign=middle;whiteSpace=wrap;rounded=0;fontSize=16;fontStyle=1" parent="1" vertex="1">
          <mxGeometry x="234" y="43" width="90" height="30" as="geometry" />
        </mxCell>
        <mxCell id="Jm47MydlCzY3dooI6Hed-53" value="5.85" style="group;strokeWidth=4;strokeColor=light-dark(#83e5ec, #ededed);" parent="1" vertex="1" connectable="0">
          <mxGeometry x="605" y="524" width="373" height="440" as="geometry" />
        </mxCell>
        <mxCell id="Jm47MydlCzY3dooI6Hed-42" value="" style="rounded=0;whiteSpace=wrap;html=1;gradientColor=default;fillColor=none;" parent="Jm47MydlCzY3dooI6Hed-53" vertex="1">
          <mxGeometry width="373" height="440" as="geometry" />
        </mxCell>
        <mxCell id="Jm47MydlCzY3dooI6Hed-44" value="Recommendation Service (VectorDB)" style="text;html=1;align=left;verticalAlign=middle;whiteSpace=wrap;rounded=0;fontSize=16;fontStyle=1" parent="Jm47MydlCzY3dooI6Hed-53" vertex="1">
          <mxGeometry x="4.970026595744681" y="1" width="230.13901595744682" height="43" as="geometry" />
        </mxCell>
        <mxCell id="Jm47MydlCzY3dooI6Hed-204" value="" style="ellipse;whiteSpace=wrap;html=1;aspect=fixed;fillColor=#fff2cc;strokeColor=#d6b656;" parent="Jm47MydlCzY3dooI6Hed-53" vertex="1">
          <mxGeometry x="37.6968085106383" y="339" width="45.63297872340426" height="45.63297872340426" as="geometry" />
        </mxCell>
        <mxCell id="Jm47MydlCzY3dooI6Hed-213" value="" style="ellipse;whiteSpace=wrap;html=1;aspect=fixed;fillColor=#fff2cc;strokeColor=#d6b656;" parent="Jm47MydlCzY3dooI6Hed-53" vertex="1">
          <mxGeometry x="209.31648936170214" y="325" width="45.63297872340426" height="45.63297872340426" as="geometry" />
        </mxCell>
        <mxCell id="Jm47MydlCzY3dooI6Hed-214" value="" style="ellipse;whiteSpace=wrap;html=1;aspect=fixed;fillColor=#fff2cc;strokeColor=#d6b656;" parent="Jm47MydlCzY3dooI6Hed-53" vertex="1">
          <mxGeometry x="129.95478723404256" y="242" width="45.63297872340426" height="45.63297872340426" as="geometry" />
        </mxCell>
        <mxCell id="Jm47MydlCzY3dooI6Hed-215" value="" style="ellipse;whiteSpace=wrap;html=1;aspect=fixed;fillColor=#fff2cc;strokeColor=#d6b656;" parent="Jm47MydlCzY3dooI6Hed-53" vertex="1">
          <mxGeometry x="44.640957446808514" y="259" width="45.63297872340426" height="45.63297872340426" as="geometry" />
        </mxCell>
        <mxCell id="Jm47MydlCzY3dooI6Hed-216" value="" style="ellipse;whiteSpace=wrap;html=1;aspect=fixed;fillColor=#fff2cc;strokeColor=#d6b656;" parent="Jm47MydlCzY3dooI6Hed-53" vertex="1">
          <mxGeometry x="119.04255319148936" y="368" width="45.63297872340426" height="45.63297872340426" as="geometry" />
        </mxCell>
        <mxCell id="Jm47MydlCzY3dooI6Hed-222" value="" style="ellipse;whiteSpace=wrap;html=1;aspect=fixed;fillColor=#d5e8d4;strokeColor=#82b366;" parent="Jm47MydlCzY3dooI6Hed-53" vertex="1">
          <mxGeometry x="173.99659574468086" y="37" width="45.63297872340426" height="45.63297872340426" as="geometry" />
        </mxCell>
        <mxCell id="Jm47MydlCzY3dooI6Hed-224" value="" style="ellipse;whiteSpace=wrap;html=1;aspect=fixed;fillColor=#d5e8d4;strokeColor=#82b366;" parent="Jm47MydlCzY3dooI6Hed-53" vertex="1">
          <mxGeometry x="286.0032978723404" y="24" width="45.63297872340426" height="45.63297872340426" as="geometry" />
        </mxCell>
        <mxCell id="Jm47MydlCzY3dooI6Hed-225" value="" style="ellipse;whiteSpace=wrap;html=1;aspect=fixed;fillColor=#d5e8d4;strokeColor=#82b366;" parent="Jm47MydlCzY3dooI6Hed-53" vertex="1">
          <mxGeometry x="213.99978723404257" y="155" width="45.63297872340426" height="45.63297872340426" as="geometry" />
        </mxCell>
        <mxCell id="Jm47MydlCzY3dooI6Hed-226" value="" style="ellipse;whiteSpace=wrap;html=1;aspect=fixed;fillColor=#d5e8d4;strokeColor=#82b366;" parent="Jm47MydlCzY3dooI6Hed-53" vertex="1">
          <mxGeometry x="292.00340425531914" y="90" width="45.63297872340426" height="45.63297872340426" as="geometry" />
        </mxCell>
        <mxCell id="0aySE2lDt-08N_8cHqI--3" value="" style="endArrow=none;html=1;rounded=0;exitX=0;exitY=0.5;exitDx=0;exitDy=0;entryX=1;entryY=0.5;entryDx=0;entryDy=0;" edge="1" parent="Jm47MydlCzY3dooI6Hed-53" source="Jm47MydlCzY3dooI6Hed-42" target="Jm47MydlCzY3dooI6Hed-42">
          <mxGeometry width="50" height="50" relative="1" as="geometry">
            <mxPoint x="195" y="267" as="sourcePoint" />
            <mxPoint x="245" y="217" as="targetPoint" />
          </mxGeometry>
        </mxCell>
        <mxCell id="0aySE2lDt-08N_8cHqI--4" value="User-User recommendations&lt;div&gt;over embedded-interest space&lt;/div&gt;" style="text;html=1;align=left;verticalAlign=middle;whiteSpace=wrap;rounded=0;fontSize=16;fontStyle=0" vertex="1" parent="Jm47MydlCzY3dooI6Hed-53">
          <mxGeometry x="11" y="78" width="143" height="95" as="geometry" />
        </mxCell>
        <mxCell id="0aySE2lDt-08N_8cHqI--5" value="User-Event recommendations over embedded-description space" style="text;html=1;align=right;verticalAlign=middle;whiteSpace=wrap;rounded=0;fontSize=16;fontStyle=0" vertex="1" parent="Jm47MydlCzY3dooI6Hed-53">
          <mxGeometry x="204" y="225" width="161.14" height="85" as="geometry" />
        </mxCell>
        <mxCell id="0aySE2lDt-08N_8cHqI--6" value="" style="ellipse;whiteSpace=wrap;html=1;aspect=fixed;fillColor=#f8cecc;strokeColor=#b85450;" vertex="1" parent="Jm47MydlCzY3dooI6Hed-53">
          <mxGeometry x="130" y="314" width="21.63" height="21.63" as="geometry" />
        </mxCell>
        <mxCell id="0aySE2lDt-08N_8cHqI--7" value="" style="ellipse;whiteSpace=wrap;html=1;aspect=fixed;fillColor=#f8cecc;strokeColor=#b85450;" vertex="1" parent="Jm47MydlCzY3dooI6Hed-53">
          <mxGeometry x="205" y="113" width="21.63" height="21.63" as="geometry" />
        </mxCell>
        <mxCell id="Jm47MydlCzY3dooI6Hed-55" value="" style="group;strokeColor=light-dark(#83e5ec, #ededed);strokeWidth=4;" parent="1" vertex="1" connectable="0">
          <mxGeometry x="230" y="42" width="305" height="431" as="geometry" />
        </mxCell>
        <mxCell id="Jm47MydlCzY3dooI6Hed-35" value="" style="rounded=0;whiteSpace=wrap;html=1;gradientColor=default;fillColor=none;" parent="Jm47MydlCzY3dooI6Hed-55" vertex="1">
          <mxGeometry width="305" height="431" as="geometry" />
        </mxCell>
        <mxCell id="Jm47MydlCzY3dooI6Hed-12" value="UI" style="swimlane;fontStyle=0;childLayout=stackLayout;horizontal=1;startSize=30;horizontalStack=0;resizeParent=1;resizeParentMax=0;resizeLast=0;collapsible=1;marginBottom=0;whiteSpace=wrap;html=1;" parent="Jm47MydlCzY3dooI6Hed-55" vertex="1">
          <mxGeometry x="22.920827042929588" y="107.75" width="261.1620795107034" height="216.11363636363632" as="geometry" />
        </mxCell>
        <mxCell id="Jm47MydlCzY3dooI6Hed-13" value="Handles client side services using TypeScript" style="text;strokeColor=none;fillColor=none;align=left;verticalAlign=middle;spacingLeft=4;spacingRight=4;overflow=hidden;points=[[0,0.5],[1,0.5]];portConstraint=eastwest;rotatable=0;whiteSpace=wrap;html=1;fontStyle=1" parent="Jm47MydlCzY3dooI6Hed-12" vertex="1">
          <mxGeometry y="30" width="261.1620795107034" height="39.18181818181818" as="geometry" />
        </mxCell>
        <mxCell id="Jm47MydlCzY3dooI6Hed-39" value="SignUp/Login page" style="text;strokeColor=none;fillColor=none;align=left;verticalAlign=middle;spacingLeft=4;spacingRight=4;overflow=hidden;points=[[0,0.5],[1,0.5]];portConstraint=eastwest;rotatable=0;whiteSpace=wrap;html=1;" parent="Jm47MydlCzY3dooI6Hed-12" vertex="1">
          <mxGeometry y="69.18181818181819" width="261.1620795107034" height="29.386363636363633" as="geometry" />
        </mxCell>
        <mxCell id="Jm47MydlCzY3dooI6Hed-40" value="Profile page" style="text;strokeColor=none;fillColor=none;align=left;verticalAlign=middle;spacingLeft=4;spacingRight=4;overflow=hidden;points=[[0,0.5],[1,0.5]];portConstraint=eastwest;rotatable=0;whiteSpace=wrap;html=1;" parent="Jm47MydlCzY3dooI6Hed-12" vertex="1">
          <mxGeometry y="98.56818181818181" width="261.1620795107034" height="29.386363636363633" as="geometry" />
        </mxCell>
        <mxCell id="Jm47MydlCzY3dooI6Hed-41" value="Home page" style="text;strokeColor=none;fillColor=none;align=left;verticalAlign=middle;spacingLeft=4;spacingRight=4;overflow=hidden;points=[[0,0.5],[1,0.5]];portConstraint=eastwest;rotatable=0;whiteSpace=wrap;html=1;" parent="Jm47MydlCzY3dooI6Hed-12" vertex="1">
          <mxGeometry y="127.95454545454544" width="261.1620795107034" height="29.386363636363633" as="geometry" />
        </mxCell>
        <mxCell id="Jm47MydlCzY3dooI6Hed-14" value="Events page" style="text;strokeColor=none;fillColor=none;align=left;verticalAlign=middle;spacingLeft=4;spacingRight=4;overflow=hidden;points=[[0,0.5],[1,0.5]];portConstraint=eastwest;rotatable=0;whiteSpace=wrap;html=1;" parent="Jm47MydlCzY3dooI6Hed-12" vertex="1">
          <mxGeometry y="157.34090909090907" width="261.1620795107034" height="29.386363636363633" as="geometry" />
        </mxCell>
        <mxCell id="Jm47MydlCzY3dooI6Hed-15" value="Forums page" style="text;strokeColor=none;fillColor=none;align=left;verticalAlign=middle;spacingLeft=4;spacingRight=4;overflow=hidden;points=[[0,0.5],[1,0.5]];portConstraint=eastwest;rotatable=0;whiteSpace=wrap;html=1;" parent="Jm47MydlCzY3dooI6Hed-12" vertex="1">
          <mxGeometry y="186.7272727272727" width="261.1620795107034" height="29.386363636363633" as="geometry" />
        </mxCell>
        <mxCell id="Jm47MydlCzY3dooI6Hed-56" value="" style="group" parent="1" vertex="1" connectable="0">
          <mxGeometry x="-1" y="164" width="203" height="73" as="geometry" />
        </mxCell>
        <mxCell id="Jm47MydlCzY3dooI6Hed-50" style="edgeStyle=orthogonalEdgeStyle;rounded=0;orthogonalLoop=1;jettySize=auto;html=1;exitX=1;exitY=0.5;exitDx=0;exitDy=0;entryX=0;entryY=0.5;entryDx=0;entryDy=0;startArrow=classic;startFill=0;" parent="Jm47MydlCzY3dooI6Hed-56" source="Jm47MydlCzY3dooI6Hed-49" target="Jm47MydlCzY3dooI6Hed-13" edge="1">
          <mxGeometry relative="1" as="geometry" />
        </mxCell>
        <mxCell id="Jm47MydlCzY3dooI6Hed-49" value="User" style="rounded=0;whiteSpace=wrap;html=1;fillColor=#ffe6cc;strokeColor=#d79b00;" parent="Jm47MydlCzY3dooI6Hed-56" vertex="1">
          <mxGeometry x="42.18181818181818" y="6" width="105.45454545454545" height="60" as="geometry" />
        </mxCell>
        <mxCell id="Jm47MydlCzY3dooI6Hed-51" value="user_event" style="text;html=1;align=center;verticalAlign=middle;whiteSpace=wrap;rounded=0;" parent="Jm47MydlCzY3dooI6Hed-56" vertex="1">
          <mxGeometry x="167.84848484848484" width="52.72727272727273" height="30" as="geometry" />
        </mxCell>
        <mxCell id="Jm47MydlCzY3dooI6Hed-52" value="response" style="text;html=1;align=center;verticalAlign=middle;whiteSpace=wrap;rounded=0;" parent="Jm47MydlCzY3dooI6Hed-56" vertex="1">
          <mxGeometry x="167.84848484848484" y="43" width="52.72727272727273" height="30" as="geometry" />
        </mxCell>
        <mxCell id="Jm47MydlCzY3dooI6Hed-38" value="" style="rounded=0;whiteSpace=wrap;html=1;gradientColor=default;fillColor=none;strokeWidth=4;strokeColor=light-dark(#83e5ec, #ededed);" parent="1" vertex="1">
          <mxGeometry x="595" y="39" width="868" height="432" as="geometry" />
        </mxCell>
        <mxCell id="Jm47MydlCzY3dooI6Hed-16" value="APIManager" style="swimlane;fontStyle=0;childLayout=stackLayout;horizontal=1;startSize=30;horizontalStack=0;resizeParent=1;resizeParentMax=0;resizeLast=0;collapsible=1;marginBottom=0;whiteSpace=wrap;html=1;" parent="1" vertex="1">
          <mxGeometry x="640" y="122" width="221" height="243" as="geometry" />
        </mxCell>
        <mxCell id="Jm47MydlCzY3dooI6Hed-18" value="Handles APIs and communication between scripts and services with FastAPI" style="text;strokeColor=none;fillColor=none;align=left;verticalAlign=middle;spacingLeft=4;spacingRight=4;overflow=hidden;points=[[0,0.5],[1,0.5]];portConstraint=eastwest;rotatable=0;whiteSpace=wrap;html=1;fontStyle=1" parent="Jm47MydlCzY3dooI6Hed-16" vertex="1">
          <mxGeometry y="30" width="221" height="52" as="geometry" />
        </mxCell>
        <mxCell id="Jm47MydlCzY3dooI6Hed-45" value="SignUp/Login features" style="text;strokeColor=none;fillColor=none;align=left;verticalAlign=middle;spacingLeft=4;spacingRight=4;overflow=hidden;points=[[0,0.5],[1,0.5]];portConstraint=eastwest;rotatable=0;whiteSpace=wrap;html=1;" parent="Jm47MydlCzY3dooI6Hed-16" vertex="1">
          <mxGeometry y="82" width="221" height="30" as="geometry" />
        </mxCell>
        <mxCell id="Jm47MydlCzY3dooI6Hed-26" value="Add/Remove connections" style="text;strokeColor=none;fillColor=none;align=left;verticalAlign=middle;spacingLeft=4;spacingRight=4;overflow=hidden;points=[[0,0.5],[1,0.5]];portConstraint=eastwest;rotatable=0;whiteSpace=wrap;html=1;" parent="Jm47MydlCzY3dooI6Hed-16" vertex="1">
          <mxGeometry y="112" width="221" height="30" as="geometry" />
        </mxCell>
        <mxCell id="Jm47MydlCzY3dooI6Hed-27" value="Add/Join events" style="text;strokeColor=none;fillColor=none;align=left;verticalAlign=middle;spacingLeft=4;spacingRight=4;overflow=hidden;points=[[0,0.5],[1,0.5]];portConstraint=eastwest;rotatable=0;whiteSpace=wrap;html=1;" parent="Jm47MydlCzY3dooI6Hed-16" vertex="1">
          <mxGeometry y="142" width="221" height="30" as="geometry" />
        </mxCell>
        <mxCell id="Jm47MydlCzY3dooI6Hed-28" value="Create/Commend on threads" style="text;strokeColor=none;fillColor=none;align=left;verticalAlign=middle;spacingLeft=4;spacingRight=4;overflow=hidden;points=[[0,0.5],[1,0.5]];portConstraint=eastwest;rotatable=0;whiteSpace=wrap;html=1;" parent="Jm47MydlCzY3dooI6Hed-16" vertex="1">
          <mxGeometry y="172" width="221" height="30" as="geometry" />
        </mxCell>
        <mxCell id="Jm47MydlCzY3dooI6Hed-87" value="Recommendation for profiles/events/threads" style="text;strokeColor=none;fillColor=none;align=left;verticalAlign=middle;spacingLeft=4;spacingRight=4;overflow=hidden;points=[[0,0.5],[1,0.5]];portConstraint=eastwest;rotatable=0;whiteSpace=wrap;html=1;" parent="Jm47MydlCzY3dooI6Hed-16" vertex="1">
          <mxGeometry y="202" width="221" height="41" as="geometry" />
        </mxCell>
        <mxCell id="Jm47MydlCzY3dooI6Hed-21" value="EventManager" style="swimlane;fontStyle=0;childLayout=stackLayout;horizontal=1;startSize=30;horizontalStack=0;resizeParent=1;resizeParentMax=0;resizeLast=0;collapsible=1;marginBottom=0;whiteSpace=wrap;html=1;" parent="1" vertex="1">
          <mxGeometry x="1081" y="67" width="151" height="128" as="geometry" />
        </mxCell>
        <mxCell id="Jm47MydlCzY3dooI6Hed-22" value="Handles processing and formatting events using external APIs" style="text;strokeColor=none;fillColor=none;align=left;verticalAlign=middle;spacingLeft=4;spacingRight=4;overflow=hidden;points=[[0,0.5],[1,0.5]];portConstraint=eastwest;rotatable=0;whiteSpace=wrap;html=1;fontStyle=1" parent="Jm47MydlCzY3dooI6Hed-21" vertex="1">
          <mxGeometry y="30" width="151" height="54" as="geometry" />
        </mxCell>
        <mxCell id="Jm47MydlCzY3dooI6Hed-46" value="Calls Eventbrite API using IDs for event details" style="text;strokeColor=none;fillColor=none;align=left;verticalAlign=middle;spacingLeft=4;spacingRight=4;overflow=hidden;points=[[0,0.5],[1,0.5]];portConstraint=eastwest;rotatable=0;whiteSpace=wrap;html=1;" parent="Jm47MydlCzY3dooI6Hed-21" vertex="1">
          <mxGeometry y="84" width="151" height="44" as="geometry" />
        </mxCell>
        <mxCell id="Jm47MydlCzY3dooI6Hed-24" value="DBController" style="swimlane;fontStyle=0;childLayout=stackLayout;horizontal=1;startSize=30;horizontalStack=0;resizeParent=1;resizeParentMax=0;resizeLast=0;collapsible=1;marginBottom=0;whiteSpace=wrap;html=1;" parent="1" vertex="1">
          <mxGeometry x="920" y="276" width="237" height="134" as="geometry" />
        </mxCell>
        <mxCell id="Jm47MydlCzY3dooI6Hed-25" value="Controls pythonic knowledge before passing into queries" style="text;strokeColor=none;fillColor=none;align=left;verticalAlign=middle;spacingLeft=4;spacingRight=4;overflow=hidden;points=[[0,0.5],[1,0.5]];portConstraint=eastwest;rotatable=0;whiteSpace=wrap;html=1;fontStyle=1" parent="Jm47MydlCzY3dooI6Hed-24" vertex="1">
          <mxGeometry y="30" width="237" height="34" as="geometry" />
        </mxCell>
        <mxCell id="Jm47MydlCzY3dooI6Hed-58" value="Process UI forms into graphdb nodes and edges" style="text;strokeColor=none;fillColor=none;align=left;verticalAlign=middle;spacingLeft=4;spacingRight=4;overflow=hidden;points=[[0,0.5],[1,0.5]];portConstraint=eastwest;rotatable=0;whiteSpace=wrap;html=1;" parent="Jm47MydlCzY3dooI6Hed-24" vertex="1">
          <mxGeometry y="64" width="237" height="35" as="geometry" />
        </mxCell>
        <mxCell id="Jm47MydlCzY3dooI6Hed-93" value="Reformat relations and nodes into json to return" style="text;strokeColor=none;fillColor=none;align=left;verticalAlign=middle;spacingLeft=4;spacingRight=4;overflow=hidden;points=[[0,0.5],[1,0.5]];portConstraint=eastwest;rotatable=0;whiteSpace=wrap;html=1;" parent="Jm47MydlCzY3dooI6Hed-24" vertex="1">
          <mxGeometry y="99" width="237" height="35" as="geometry" />
        </mxCell>
        <mxCell id="Jm47MydlCzY3dooI6Hed-32" value="QueryManager" style="swimlane;fontStyle=0;childLayout=stackLayout;horizontal=1;startSize=30;horizontalStack=0;resizeParent=1;resizeParentMax=0;resizeLast=0;collapsible=1;marginBottom=0;whiteSpace=wrap;html=1;" parent="1" vertex="1">
          <mxGeometry x="1197" y="276" width="231" height="94" as="geometry" />
        </mxCell>
        <mxCell id="Jm47MydlCzY3dooI6Hed-33" value="Handles queries and formatting&amp;nbsp;" style="text;strokeColor=none;fillColor=none;align=left;verticalAlign=middle;spacingLeft=4;spacingRight=4;overflow=hidden;points=[[0,0.5],[1,0.5]];portConstraint=eastwest;rotatable=0;whiteSpace=wrap;html=1;fontStyle=1" parent="Jm47MydlCzY3dooI6Hed-32" vertex="1">
          <mxGeometry y="30" width="231" height="34" as="geometry" />
        </mxCell>
        <mxCell id="Jm47MydlCzY3dooI6Hed-60" value="eventbrite API" style="text;strokeColor=none;fillColor=none;align=left;verticalAlign=middle;spacingLeft=4;spacingRight=4;overflow=hidden;points=[[0,0.5],[1,0.5]];portConstraint=eastwest;rotatable=0;whiteSpace=wrap;html=1;" parent="Jm47MydlCzY3dooI6Hed-32" vertex="1">
          <mxGeometry y="64" width="231" height="30" as="geometry" />
        </mxCell>
        <mxCell id="Jm47MydlCzY3dooI6Hed-43" value="Backend" style="text;html=1;align=center;verticalAlign=middle;whiteSpace=wrap;rounded=0;fontSize=16;fontStyle=1" parent="1" vertex="1">
          <mxGeometry x="600" y="40" width="90" height="30" as="geometry" />
        </mxCell>
        <mxCell id="Jm47MydlCzY3dooI6Hed-23" style="edgeStyle=orthogonalEdgeStyle;rounded=0;orthogonalLoop=1;jettySize=auto;html=1;exitX=1;exitY=0.5;exitDx=0;exitDy=0;curved=0;startArrow=classic;startFill=0;entryX=0;entryY=0.5;entryDx=0;entryDy=0;" parent="1" source="Jm47MydlCzY3dooI6Hed-18" target="Jm47MydlCzY3dooI6Hed-89" edge="1">
          <mxGeometry relative="1" as="geometry" />
        </mxCell>
        <mxCell id="Jm47MydlCzY3dooI6Hed-64" style="edgeStyle=orthogonalEdgeStyle;rounded=0;orthogonalLoop=1;jettySize=auto;html=1;exitX=1;exitY=0.5;exitDx=0;exitDy=0;entryX=0;entryY=0.5;entryDx=0;entryDy=0;startArrow=classicThin;startFill=0;" parent="1" source="Jm47MydlCzY3dooI6Hed-25" target="Jm47MydlCzY3dooI6Hed-33" edge="1">
          <mxGeometry relative="1" as="geometry" />
        </mxCell>
        <mxCell id="Jm47MydlCzY3dooI6Hed-65" style="edgeStyle=orthogonalEdgeStyle;rounded=0;orthogonalLoop=1;jettySize=auto;html=1;exitX=1;exitY=0.5;exitDx=0;exitDy=0;entryX=0.5;entryY=0;entryDx=0;entryDy=0;startArrow=classicThin;startFill=0;" parent="1" source="Jm47MydlCzY3dooI6Hed-33" target="Jm47MydlCzY3dooI6Hed-62" edge="1">
          <mxGeometry relative="1" as="geometry">
            <Array as="points">
              <mxPoint x="1448" y="323" />
              <mxPoint x="1448" y="453" />
              <mxPoint x="1223" y="453" />
            </Array>
          </mxGeometry>
        </mxCell>
        <mxCell id="Jm47MydlCzY3dooI6Hed-70" style="edgeStyle=orthogonalEdgeStyle;rounded=0;orthogonalLoop=1;jettySize=auto;html=1;exitX=1;exitY=0.5;exitDx=0;exitDy=0;entryX=0;entryY=0.928;entryDx=0;entryDy=0;startArrow=classic;startFill=1;entryPerimeter=0;" parent="1" source="Jm47MydlCzY3dooI6Hed-13" target="Jm47MydlCzY3dooI6Hed-18" edge="1">
          <mxGeometry relative="1" as="geometry" />
        </mxCell>
        <mxCell id="Jm47MydlCzY3dooI6Hed-71" style="edgeStyle=orthogonalEdgeStyle;rounded=0;orthogonalLoop=1;jettySize=auto;html=1;exitX=1.01;exitY=0.756;exitDx=0;exitDy=0;entryX=0;entryY=0.5;entryDx=0;entryDy=0;startArrow=none;startFill=0;exitPerimeter=0;" parent="1" source="Jm47MydlCzY3dooI6Hed-18" target="Jm47MydlCzY3dooI6Hed-25" edge="1">
          <mxGeometry relative="1" as="geometry" />
        </mxCell>
        <mxCell id="Jm47MydlCzY3dooI6Hed-74" value="send request" style="text;html=1;align=center;verticalAlign=middle;whiteSpace=wrap;rounded=0;" parent="1" vertex="1">
          <mxGeometry x="533" y="161" width="60" height="30" as="geometry" />
        </mxCell>
        <mxCell id="Jm47MydlCzY3dooI6Hed-76" value="receives response" style="text;html=1;align=center;verticalAlign=middle;whiteSpace=wrap;rounded=0;" parent="1" vertex="1">
          <mxGeometry x="532" y="210" width="60" height="30" as="geometry" />
        </mxCell>
        <mxCell id="Jm47MydlCzY3dooI6Hed-80" value="saves people, event and threads data in vectordb" style="text;html=1;align=center;verticalAlign=middle;whiteSpace=wrap;rounded=0;" parent="1" vertex="1">
          <mxGeometry x="891" y="480" width="141" height="30" as="geometry" />
        </mxCell>
        <mxCell id="Jm47MydlCzY3dooI6Hed-81" style="edgeStyle=orthogonalEdgeStyle;rounded=0;orthogonalLoop=1;jettySize=auto;html=1;exitX=1.002;exitY=0.747;exitDx=0;exitDy=0;startArrow=none;startFill=0;exitPerimeter=0;" parent="1" source="Jm47MydlCzY3dooI6Hed-18" edge="1">
          <mxGeometry relative="1" as="geometry">
            <mxPoint x="890" y="524" as="targetPoint" />
            <Array as="points">
              <mxPoint x="890" y="191" />
            </Array>
          </mxGeometry>
        </mxCell>
        <mxCell id="Jm47MydlCzY3dooI6Hed-82" style="edgeStyle=orthogonalEdgeStyle;rounded=0;orthogonalLoop=1;jettySize=auto;html=1;exitX=0.5;exitY=0;exitDx=0;exitDy=0;entryX=0.265;entryY=1.002;entryDx=0;entryDy=0;entryPerimeter=0;endArrow=classic;endFill=0;" parent="1" target="Jm47MydlCzY3dooI6Hed-87" edge="1">
          <mxGeometry relative="1" as="geometry">
            <mxPoint x="698.9973262032086" y="525" as="sourcePoint" />
            <mxPoint x="698.117" y="345.21000000000004" as="targetPoint" />
          </mxGeometry>
        </mxCell>
        <mxCell id="Jm47MydlCzY3dooI6Hed-83" style="edgeStyle=orthogonalEdgeStyle;rounded=0;orthogonalLoop=1;jettySize=auto;html=1;entryX=0.382;entryY=1.011;entryDx=0;entryDy=0;entryPerimeter=0;startArrow=classic;startFill=1;endArrow=none;endFill=1;" parent="1" target="Jm47MydlCzY3dooI6Hed-87" edge="1">
          <mxGeometry relative="1" as="geometry">
            <mxPoint x="724" y="524" as="sourcePoint" />
            <mxPoint x="724.2570000000001" y="345.7800000000001" as="targetPoint" />
          </mxGeometry>
        </mxCell>
        <mxCell id="Jm47MydlCzY3dooI6Hed-84" style="edgeStyle=orthogonalEdgeStyle;rounded=0;orthogonalLoop=1;jettySize=auto;html=1;exitX=0.899;exitY=1.015;exitDx=0;exitDy=0;entryX=0.529;entryY=1.019;entryDx=0;entryDy=0;entryPerimeter=0;exitPerimeter=0;startArrow=classic;startFill=0;endArrow=none;" parent="1" source="Jm47MydlCzY3dooI6Hed-87" target="Jm47MydlCzY3dooI6Hed-93" edge="1">
          <mxGeometry relative="1" as="geometry" />
        </mxCell>
        <mxCell id="Jm47MydlCzY3dooI6Hed-85" value="sends users interests" style="text;html=1;align=center;verticalAlign=middle;whiteSpace=wrap;rounded=0;" parent="1" vertex="1">
          <mxGeometry x="726" y="432" width="75" height="30" as="geometry" />
        </mxCell>
        <mxCell id="Jm47MydlCzY3dooI6Hed-86" value="returns top profiles/&lt;div&gt;events/&lt;/div&gt;&lt;div&gt;threads&lt;/div&gt;" style="text;html=1;align=center;verticalAlign=middle;whiteSpace=wrap;rounded=0;" parent="1" vertex="1">
          <mxGeometry x="623" y="416" width="75" height="50" as="geometry" />
        </mxCell>
        <mxCell id="Jm47MydlCzY3dooI6Hed-88" value="process profile/&lt;span style=&quot;background-color: transparent; color: light-dark(rgb(0, 0, 0), rgb(255, 255, 255));&quot;&gt;threads info by user event&lt;/span&gt;" style="text;html=1;align=center;verticalAlign=middle;whiteSpace=wrap;rounded=0;" parent="1" vertex="1">
          <mxGeometry x="890" y="233" width="130" height="30" as="geometry" />
        </mxCell>
        <mxCell id="Jm47MydlCzY3dooI6Hed-90" style="edgeStyle=orthogonalEdgeStyle;rounded=0;orthogonalLoop=1;jettySize=auto;html=1;exitX=1;exitY=0.5;exitDx=0;exitDy=0;entryX=0;entryY=0.5;entryDx=0;entryDy=0;" parent="1" source="Jm47MydlCzY3dooI6Hed-89" target="Jm47MydlCzY3dooI6Hed-22" edge="1">
          <mxGeometry relative="1" as="geometry" />
        </mxCell>
        <mxCell id="Jm47MydlCzY3dooI6Hed-89" value="APScheduler&lt;br&gt;(midnight daily)" style="rounded=0;whiteSpace=wrap;html=1;fillColor=#fff2cc;strokeColor=#d6b656;" parent="1" vertex="1">
          <mxGeometry x="918" y="94" width="120" height="60" as="geometry" />
        </mxCell>
        <mxCell id="Jm47MydlCzY3dooI6Hed-30" value="EventScraper" style="swimlane;fontStyle=0;childLayout=stackLayout;horizontal=1;startSize=30;horizontalStack=0;resizeParent=1;resizeParentMax=0;resizeLast=0;collapsible=1;marginBottom=0;whiteSpace=wrap;html=1;" parent="1" vertex="1">
          <mxGeometry x="1282" y="67" width="151" height="114" as="geometry" />
        </mxCell>
        <mxCell id="Jm47MydlCzY3dooI6Hed-31" value="Scrapes websites for links related to events" style="text;strokeColor=none;fillColor=none;align=left;verticalAlign=middle;spacingLeft=4;spacingRight=4;overflow=hidden;points=[[0,0.5],[1,0.5]];portConstraint=eastwest;rotatable=0;whiteSpace=wrap;html=1;fontStyle=1" parent="Jm47MydlCzY3dooI6Hed-30" vertex="1">
          <mxGeometry y="30" width="151" height="40" as="geometry" />
        </mxCell>
        <mxCell id="Jm47MydlCzY3dooI6Hed-47" value="Scrapes Eventbrite web for event IDs" style="text;strokeColor=none;fillColor=none;align=left;verticalAlign=middle;spacingLeft=4;spacingRight=4;overflow=hidden;points=[[0,0.5],[1,0.5]];portConstraint=eastwest;rotatable=0;whiteSpace=wrap;html=1;" parent="Jm47MydlCzY3dooI6Hed-30" vertex="1">
          <mxGeometry y="70" width="151" height="44" as="geometry" />
        </mxCell>
        <mxCell id="Jm47MydlCzY3dooI6Hed-73" style="edgeStyle=orthogonalEdgeStyle;rounded=0;orthogonalLoop=1;jettySize=auto;html=1;exitX=1;exitY=0.5;exitDx=0;exitDy=0;entryX=0.013;entryY=0.679;entryDx=0;entryDy=0;startArrow=classic;startFill=0;entryPerimeter=0;" parent="1" source="Jm47MydlCzY3dooI6Hed-22" target="Jm47MydlCzY3dooI6Hed-31" edge="1">
          <mxGeometry relative="1" as="geometry" />
        </mxCell>
        <mxCell id="Jm47MydlCzY3dooI6Hed-91" value="saves people, event and threads data in graphdb" style="text;html=1;align=center;verticalAlign=middle;whiteSpace=wrap;rounded=0;" parent="1" vertex="1">
          <mxGeometry x="1275" y="420" width="141" height="30" as="geometry" />
        </mxCell>
        <mxCell id="Jm47MydlCzY3dooI6Hed-92" value="process events data once a day" style="text;html=1;align=center;verticalAlign=middle;whiteSpace=wrap;rounded=0;" parent="1" vertex="1">
          <mxGeometry x="886" y="192" width="126" height="30" as="geometry" />
        </mxCell>
        <mxCell id="Jm47MydlCzY3dooI6Hed-233" value="pulls relations back to display for user" style="text;html=1;align=center;verticalAlign=middle;whiteSpace=wrap;rounded=0;" parent="1" vertex="1">
          <mxGeometry x="899" y="432" width="141" height="30" as="geometry" />
        </mxCell>
      </root>
    </mxGraphModel>
  </diagram>
</mxfile>
